inDegrees=yes
name=ik_S51_A12_T02
DataType=double
version=3
OpenSimVersion=4.3-2021-08-27-4bc7ad9
endheader
time	pelvis_tilt	pelvis_list	pelvis_rotation	pelvis_tx	pelvis_ty	pelvis_tz	hip_flexion_r	hip_adduction_r	hip_rotation_r	knee_angle_r	knee_angle_r_beta	ankle_angle_r	subtalar_angle_r	mtp_angle_r	hip_flexion_l	hip_adduction_l	hip_rotation_l	knee_angle_l	knee_angle_l_beta	ankle_angle_l	subtalar_angle_l	mtp_angle_l	lumbar_extension	lumbar_bending	lumbar_rotation	arm_flex_r	arm_add_r	arm_rot_r	elbow_flex_r	pro_sup_r	wrist_flex_r	wrist_dev_r	arm_flex_l	arm_add_l	arm_rot_l	elbow_flex_l	pro_sup_l	wrist_flex_l	wrist_dev_l
4.559999999999991	0.7310243705115645	1.470208557005033	38.19551853090141	0	0.9399999999999999	0	21.42223679081421	-7.900236909197858	-6.741962249347208	23.68373271734148	0.4133591150799124	0	0	0	21.42223679081421	-7.900236909197858	-6.741962249347208	23.68373271734148	0.4133591150799124	0	0	0	1.80688962818889	0.5265123950177218	8.91638977790454	0.1702063369416541	-5.4149717324038	-13.58431399756151	3.256462116115548	152.0169834392968	0	0	57.87296614451187	-15.87962221294029	-13.40728107805781	15.39848633983779	105.5862081499707	0	0
4.57999999999999	0.730424010791462	1.464384592057232	38.00687201479781	0	0.9399999999999999	0	21.43752014788786	-7.904535973369211	-6.746248331501435	23.69965639401736	0.4136370356669294	0	0	0	21.43752014788786	-7.904535973369211	-6.746248331501435	23.69965639401736	0.4136370356669294	0	0	0	1.798755704575718	0.5237207239222131	9.112052462223597	0.1916930997371011	-5.381888519342874	-13.57503118770262	3.264282527291823	152.0352879937446	0	0	61.00960655848313	-15.47287104785903	-11.9443690547041	17.14746560420263	102.7457070508892	0	0
4.59999999999999	0.7308134640421353	1.538860625227845	37.80354963693181	0	0.9399999999999999	0	21.45192610867695	-7.908583862920757	-6.750286620101454	23.71466365326552	0.4138989617525102	0	0	0	21.45192610867695	-7.908583862920757	-6.750286620101454	23.71466365326552	0.4138989617525102	0	0	0	1.842813616169238	0.5818938349369555	9.21742921994346	0.1636863163780796	-5.445599487418294	-13.41551018127588	3.242483528181758	152.0372036654488	0	0	63.88260147533179	-15.20102524355551	-10.8699713414703	18.8006672158191	100.7541169007704	0	0
4.619999999999989	0.7319620293644413	1.629101412898997	37.62161712678367	0	0.9399999999999999	0	21.50533420372386	-7.923497678644258	-6.765216093236113	23.77035244762419	0.414870914570535	0	0	0	21.50533420372386	-7.923497678644258	-6.765216093236113	23.77035244762419	0.414870914570535	0	0	0	1.897742905772043	0.6540627384569909	9.26821697165493	0.1184861972171469	-5.560103568169037	-13.26155269304325	3.200685536310721	152.0769189895132	0	0	63.64504283069643	-15.35465737961361	-10.58124932480465	23.43360221929084	99.48490886929721	0	0
4.639999999999989	0.7403449769476578	1.779881129775835	37.33923548449589	0	0.9399999999999999	0	21.5216119826009	-7.92803014115347	-6.769759072505941	23.78735093890813	0.4151675942113113	0	0	0	21.5216119826009	-7.92803014115347	-6.769759072505941	23.78735093890813	0.4151675942113113	0	0	0	1.997619959494113	0.767292433937078	9.288526878128604	0.002488616252910728	-5.700147589578257	-13.04008003101777	3.164862623261541	152.0526614810176	0	0	63.29850505791715	-15.66233169956042	-10.45457444019148	27.94765397419791	99.06981893937063	0	0
4.659999999999989	0.7279965990225742	1.862717353923795	37.05493585451323	0	0.9399999999999999	0	21.76660810737132	-7.977795100190671	-6.82704430331538	24.09837620084924	0.4205960090890615	0	0	0	21.76660810737132	-7.977795100190671	-6.82704430331538	24.09837620084924	0.4205960090890615	0	0	0	2.040797363191019	0.8245936693907031	9.392930789988409	-0.01962486770975763	-5.790899964761767	-12.94580914107051	3.126902104159718	152.0311449245371	0	0	69.05249610420718	-15.05471854435054	-9.13001540573736	26.29050082769692	99.93954343632153	0	0
4.679999999999988	0.7425963118784071	2.012440462659291	36.69092357891238	0	0.9399999999999999	0	21.96581379410807	-8.016968941659535	-6.872828362549308	24.35392499313516	0.4250561769139459	0	0	0	21.96581379410807	-8.016968941659535	-6.872828362549308	24.35392499313516	0.4250561769139459	0	0	0	2.141104408766887	0.9348541279958211	9.469143081322068	-0.1725707662940761	-5.940436769421034	-12.79317583090354	3.025435977076032	152.108959595427	0	0	74.12125142294731	-14.15775490320531	-8.095397336159117	24.85796632118184	100.7037292865378	0	0
4.699999999999988	0.7411275918675297	2.092951960602686	36.34997873035454	0	0.9399999999999999	0	21.9993039583694	-8.026087485730498	-6.882085241494735	24.38861712679544	0.4256616688708598	0	0	0	21.9993039583694	-8.026087485730498	-6.882085241494735	24.38861712679544	0.4256616688708598	0	0	0	2.181055316605264	1.010081096525124	9.649088753297507	-0.2125235861719464	-6.045143206164908	-12.78269893680233	2.925766218670587	152.2699924208282	0	0	76.33859438137156	-13.80348064018845	-6.968748592097993	30.37130979221662	98.45823771922919	0	0
4.719999999999987	0.7407010630271255	2.132023852828285	36.09176931570241	0	0.9399999999999999	0	22.01535713362992	-8.03046532280325	-6.886526346791753	24.40522682551798	0.4259515628013324	0	0	0	22.01535713362992	-8.03046532280325	-6.886526346791753	24.40522682551798	0.4259515628013324	0	0	0	2.199341902483267	1.051430098286073	9.826660095171889	-0.2112038216676767	-6.072597894019198	-12.85960839738306	2.854980380887181	152.3449014871603	0	0	78.52726815743273	-13.23376288375211	-6.029325026500326	31.86713537730109	96.40200234554304	0	0
4.739999999999987	0.7572768239709876	2.215374695713527	35.80319898976442	0	0.9399999999999999	0	22.02951894353922	-8.034321548136706	-6.890441544311481	24.41988185506367	0.4262073413188818	0	0	0	22.02951894353922	-8.034321548136706	-6.890441544311481	24.41988185506367	0.4262073413188818	0	0	0	2.254895812754884	1.122847966972629	9.968374957837375	-0.2921734668978038	-6.138800002174297	-12.93994891562998	2.812886423450527	152.800865059426	0	0	80.4178502818293	-12.6661376860605	-5.201702496340416	33.2864758164234	94.29984523203476	0	0
4.759999999999986	0.7650091451776699	2.29398796936674	35.50587744068353	0	0.9399999999999999	0	22.04370152683606	-8.038179081948263	-6.894360651700984	24.43455725635392	0.426463475390448	0	0	0	22.04370152683606	-8.038179081948263	-6.894360651700984	24.43455725635392	0.426463475390448	0	0	0	2.300557035562511	1.195082619076125	10.10265234479234	-0.3781004583381526	-6.249894940278035	-13.03351668276705	2.740187476755787	153.260056656669	0	0	82.23908044402384	-12.11357572128727	-4.424119860794619	34.54735757182916	92.27510123958554	0	0
4.779999999999986	0.773014334272877	2.329472264165203	35.25296095866328	0	0.9399999999999999	0	22.05779929853464	-8.04200808240461	-6.898253813182488	24.44914712603546	0.4267181166538278	0	0	0	22.05779929853464	-8.04200808240461	-6.898253813182488	24.44914712603546	0.4267181166538278	0	0	0	2.319737116573883	1.234725064861798	10.26951891761162	-0.4086451031828046	-6.314020133647496	-13.1355995073346	2.68726191466532	153.519296023221	0	0	84.00368727107578	-11.48765340031769	-3.591289142149317	35.71200007633776	90.22602907607994	0	0
4.799999999999986	0.7828253684158996	2.400711776003324	34.95360923284896	0	0.9399999999999999	0	22.07148951190897	-8.045721607049286	-6.902032272340529	24.46331637319236	0.4269654166692445	0	0	0	22.07148951190897	-8.045721607049286	-6.902032272340529	24.46331637319236	0.4269654166692445	0	0	0	2.362220764420573	1.300207950242233	10.41540508266099	-0.4946603823002147	-6.423783486702759	-13.10666334445379	2.63980167798271	153.6410176179596	0	0	85.55073205414713	-10.92037724083462	-2.756172028361783	36.98674159694198	87.61896425575645	0	0
4.819999999999985	0.7863236215181555	2.564223480442657	34.53840632560799	0	0.9399999999999999	0	22.09036208147229	-8.050841492814198	-6.907242696001516	24.48282477611954	0.4273059025321295	0	0	0	22.09036208147229	-8.050841492814198	-6.907242696001516	24.48282477611954	0.4273059025321295	0	0	0	2.457346830924945	1.435069669798223	10.45368387777136	-0.6614271920573667	-6.657485726834679	-12.81787411471559	2.608826698503476	153.6846609908058	0	0	86.7591806492531	-10.5833646697929	-2.081473924275486	38.32815456871987	84.74923923362731	0	0
4.839999999999985	0.789771173171864	2.660647252417803	34.28281257818288	0	0.9399999999999999	0	22.10257532402145	-8.054145848151952	-6.91060987883216	24.49546363185069	0.4275264921783226	0	0	0	22.10257532402145	-8.054145848151952	-6.91060987883216	24.49546363185069	0.4275264921783226	0	0	0	2.512737495956518	1.5166301906252	10.4912090395239	-0.6751936957622519	-6.839477068183579	-12.75879107785127	2.508642614722399	153.7576814889948	0	0	87.97862313452762	-10.05931635225163	-1.628856949356011	36.86361726565357	84.71239434616703	0	0
4.859999999999984	0.8016347883763896	2.701418726975625	34.00964872159663	0	0.9399999999999999	0	22.11771057798032	-8.058235295194748	-6.914780170724482	24.51112800850345	0.4277998871261858	0	0	0	22.11771057798032	-8.058235295194748	-6.914780170724482	24.51112800850345	0.4277998871261858	0	0	0	2.539476370195225	1.554801964261392	10.64723429810344	-0.7261016519003592	-6.872097051088435	-12.62969191844656	2.581906947001232	153.6645427026702	0	0	89.11229002705552	-9.499535102099543	-0.8037113288602855	38.0428117197553	81.86247138310476	0	0
4.879999999999984	0.8037351042265058	2.835667123931595	33.64613339264874	0	0.9399999999999999	0	22.13534844297093	-8.06299989384789	-6.919640605464165	24.52936388373657	0.4281181631909867	0	0	0	22.13534844297093	-8.06299989384789	-6.919640605464165	24.52936388373657	0.4281181631909867	0	0	0	2.613050277623051	1.670417474743355	10.71912433180856	-0.8268529756662294	-7.091603336723935	-12.43458211913831	2.55498549333578	153.6774910671069	0	0	89.99027441136816	-9.118776504018658	-0.1230168859056231	39.3212187831842	78.82253945849916	0	0
4.899999999999983	0.7996355229866051	2.879540877202377	33.40083017633865	0	0.9399999999999999	0	22.15275471503745	-8.067692693412365	-6.924432830730294	24.54736639052272	0.4284323662080176	0	0	0	22.15275471503745	-8.067692693412365	-6.924432830730294	24.54736639052272	0.4284323662080176	0	0	0	2.626054806815607	1.72149270348547	10.89118232131476	-0.8288144298920125	-7.191365794116085	-12.45032986470969	2.590079364572194	153.6149899362118	0	0	90.94641258010324	-8.547567460674415	0.5287485273565479	40.3310192590113	75.87271742000675	0	0
